<svg xmlns="http://www.w3.org/2000/svg" version="1.1" viewBox="-5.0 -10.0 110.0 135.0">
 <path d="m79.449 34.418c-0.65234-0.57812-0.71484-1.5742-0.13672-2.2266s1.5742-0.71484 2.2266-0.13672l0.24609 0.21484c0.65234 0.57812 0.71484 1.5742 0.13672 2.2266-0.57422 0.65234-1.5742 0.71094-2.2266 0.13672zm-58.496-0.35156c-0.0625 0.066406-0.13281 0.12891-0.20312 0.18359l-12.496 11.051h6.3633c0.875 0 1.582 0.71094 1.582 1.582v45.266h20.355v-25.676c0-3.5117 1.5273-6.6992 3.9844-9.0039 2.4336-2.2812 5.7852-3.6992 9.4609-3.6992s7.0273 1.418 9.4609 3.6992c2.4609 2.3047 3.9844 5.4922 3.9844 9.0039v25.676h20.352v-45.266c0-0.875 0.71094-1.582 1.582-1.582h6.3672l-7.5273-6.6602c-0.65234-0.57422-0.71484-1.5742-0.13672-2.2266 0.57812-0.65234 1.5742-0.71484 2.2266-0.13672l10.656 9.4258c0.65234 0.57812 0.71484 1.5742 0.13672 2.2266-0.3125 0.35156-0.74609 0.53125-1.1797 0.53125l-8.957 0.007812v45.266c0 0.875-0.70703 1.582-1.582 1.582h-23.52c-0.875 0-1.582-0.70703-1.582-1.582v-27.258c0-2.6055-1.1445-4.9766-2.9844-6.7031-1.8633-1.7461-4.4453-2.8359-7.293-2.8359s-5.4297 1.0859-7.293 2.8359c-1.8398 1.7227-2.9844 4.0977-2.9844 6.7031v27.258c0 0.875-0.71094 1.582-1.582 1.582h-23.52c-0.875 0-1.582-0.70703-1.582-1.582v-45.266h-8.9531c-0.875 0-1.582-0.71094-1.582-1.582 0-0.51953 0.25-0.98047 0.63672-1.2695l15.09-13.348v-21.457c0-0.875 0.71094-1.582 1.582-1.582h13.5c0.875 0 1.582 0.70703 1.582 1.582v6.7148l14.066-12.441c0.60547-0.53516 1.5117-0.51953 2.0977 0.007812l25.953 22.957c0.65234 0.57812 0.71484 1.5742 0.13672 2.2266-0.57422 0.65234-1.5742 0.71484-2.2266 0.13672l-24.918-22.039-15.547 13.754c-0.0625 0.066406-0.12891 0.125-0.20313 0.17969l-13.297 11.762zm10.773-13.742v-7.9336h-10.332v17.074z"/>
</svg>